<svg width="120" height="26" viewBox="0 0 120 26" fill="none" xmlns="http://www.w3.org/2000/svg">
<path d="M33.016 18.072C32.184 18.072 31.432 17.888 30.76 17.52C30.096 17.152 29.572 16.644 29.188 15.996C28.812 15.34 28.624 14.608 28.624 13.8C28.624 12.992 28.812 12.264 29.188 11.616C29.572 10.96 30.1 10.448 30.772 10.08C31.444 9.712 32.196 9.528 33.028 9.528C33.652 9.528 34.228 9.632 34.756 9.84C35.284 10.048 35.732 10.352 36.1 10.752L35.536 11.316C34.88 10.652 34.052 10.32 33.052 10.32C32.388 10.32 31.784 10.472 31.24 10.776C30.696 11.08 30.268 11.496 29.956 12.024C29.652 12.552 29.5 13.144 29.5 13.8C29.5 14.456 29.652 15.048 29.956 15.576C30.268 16.104 30.696 16.52 31.24 16.824C31.784 17.128 32.388 17.28 33.052 17.28C34.06 17.28 34.888 16.944 35.536 16.272L36.1 16.836C35.732 17.236 35.28 17.544 34.744 17.76C34.216 17.968 33.64 18.072 33.016 18.072ZM41.425 9.528C42.513 9.528 43.369 9.848 43.993 10.488C44.625 11.12 44.941 12.036 44.941 13.236V18H44.065V15.528H38.785V18H37.921V13.236C37.921 12.036 38.233 11.12 38.857 10.488C39.489 9.848 40.345 9.528 41.425 9.528ZM44.065 14.76V13.152C44.065 12.216 43.833 11.512 43.369 11.04C42.905 10.56 42.257 10.32 41.425 10.32C40.593 10.32 39.945 10.56 39.481 11.04C39.017 11.512 38.785 12.216 38.785 13.152V14.76H44.065ZM49.9184 18.072C49.2944 18.072 48.6944 17.972 48.1184 17.772C47.5504 17.572 47.1104 17.308 46.7984 16.98L47.1464 16.296C47.4504 16.6 47.8544 16.848 48.3584 17.04C48.8624 17.224 49.3824 17.316 49.9184 17.316C50.6704 17.316 51.2344 17.18 51.6104 16.908C51.9864 16.628 52.1744 16.268 52.1744 15.828C52.1744 15.492 52.0704 15.224 51.8624 15.024C51.6624 14.824 51.4144 14.672 51.1184 14.568C50.8224 14.456 50.4104 14.336 49.8824 14.208C49.2504 14.048 48.7464 13.896 48.3704 13.752C47.9944 13.6 47.6704 13.372 47.3984 13.068C47.1344 12.764 47.0024 12.352 47.0024 11.832C47.0024 11.408 47.1144 11.024 47.3384 10.68C47.5624 10.328 47.9064 10.048 48.3704 9.84C48.8344 9.632 49.4104 9.528 50.0984 9.528C50.5784 9.528 51.0464 9.596 51.5024 9.732C51.9664 9.86 52.3664 10.04 52.7024 10.272L52.4024 10.98C52.0504 10.748 51.6744 10.576 51.2744 10.464C50.8744 10.344 50.4824 10.284 50.0984 10.284C49.3624 10.284 48.8064 10.428 48.4304 10.716C48.0624 10.996 47.8784 11.36 47.8784 11.808C47.8784 12.144 47.9784 12.416 48.1784 12.624C48.3864 12.824 48.6424 12.98 48.9464 13.092C49.2584 13.196 49.6744 13.312 50.1944 13.44C50.8104 13.592 51.3064 13.744 51.6824 13.896C52.0664 14.04 52.3904 14.264 52.6544 14.568C52.9184 14.864 53.0504 15.268 53.0504 15.78C53.0504 16.204 52.9344 16.592 52.7024 16.944C52.4784 17.288 52.1304 17.564 51.6584 17.772C51.1864 17.972 50.6064 18.072 49.9184 18.072ZM62.0052 9.6V18H61.1292V14.124H55.8732V18H54.9852V9.6H55.8732V13.344H61.1292V9.6H62.0052Z" fill="white"/>
<path d="M71.1515 10.32C70.3275 10.32 69.7115 10.508 69.3035 10.884C68.9035 11.252 68.7035 11.788 68.7035 12.492V13.668H72.7115V14.436H68.7035V18H67.8155V12.48C67.8155 11.56 68.1035 10.84 68.6795 10.32C69.2555 9.792 70.0675 9.528 71.1155 9.528C72.1315 9.528 72.9475 9.748 73.5635 10.188L73.2395 10.92C72.6955 10.52 71.9995 10.32 71.1515 10.32ZM75.1063 9.6H75.9943V17.232H80.6983V18H75.1063V9.6ZM85.6806 18.072C84.8486 18.072 84.0926 17.888 83.4126 17.52C82.7406 17.144 82.2126 16.632 81.8286 15.984C81.4526 15.336 81.2646 14.608 81.2646 13.8C81.2646 12.992 81.4526 12.264 81.8286 11.616C82.2126 10.968 82.7406 10.46 83.4126 10.092C84.0926 9.716 84.8486 9.528 85.6806 9.528C86.5126 9.528 87.2606 9.712 87.9246 10.08C88.5966 10.448 89.1246 10.96 89.5086 11.616C89.8926 12.264 90.0846 12.992 90.0846 13.8C90.0846 14.608 89.8926 15.34 89.5086 15.996C89.1246 16.644 88.5966 17.152 87.9246 17.52C87.2606 17.888 86.5126 18.072 85.6806 18.072ZM85.6806 17.28C86.3446 17.28 86.9446 17.132 87.4806 16.836C88.0166 16.532 88.4366 16.116 88.7406 15.588C89.0446 15.052 89.1966 14.456 89.1966 13.8C89.1966 13.144 89.0446 12.552 88.7406 12.024C88.4366 11.488 88.0166 11.072 87.4806 10.776C86.9446 10.472 86.3446 10.32 85.6806 10.32C85.0166 10.32 84.4126 10.472 83.8686 10.776C83.3326 11.072 82.9086 11.488 82.5966 12.024C82.2926 12.552 82.1406 13.144 82.1406 13.8C82.1406 14.456 82.2926 15.052 82.5966 15.588C82.9086 16.116 83.3326 16.532 83.8686 16.836C84.4126 17.132 85.0166 17.28 85.6806 17.28ZM103.763 9.6V14.7C103.763 15.812 103.487 16.652 102.935 17.22C102.391 17.788 101.619 18.072 100.619 18.072C99.955 18.072 99.387 17.944 98.915 17.688C98.451 17.432 98.107 17.068 97.883 16.596C97.651 17.076 97.303 17.444 96.839 17.7C96.375 17.948 95.815 18.072 95.159 18.072C94.151 18.072 93.371 17.788 92.819 17.22C92.275 16.652 92.003 15.812 92.003 14.7V9.6H92.891V14.664C92.891 16.408 93.647 17.28 95.159 17.28C95.887 17.28 96.451 17.068 96.851 16.644C97.251 16.212 97.451 15.552 97.451 14.664V9.6H98.327V14.664C98.327 15.56 98.523 16.22 98.915 16.644C99.315 17.068 99.883 17.28 100.619 17.28C101.347 17.28 101.907 17.068 102.299 16.644C102.691 16.212 102.887 15.552 102.887 14.664V9.6H103.763Z" fill="#FFC000"/>
<rect width="11.0101" height="12.8098" transform="matrix(0.84545 0.534055 -0.677169 0.735827 16.6915 8.69415)" fill="white"/>
<rect width="11.0101" height="12.8098" transform="matrix(0.84545 0.534055 -0.677169 0.735827 14.6744 2)" fill="#FFC000"/>
<rect x="0.25" y="0.25" width="119.5" height="25.5" rx="12.75" stroke="url(#paint0_linear_505_50)" stroke-width="0.5"/>
<defs>
<linearGradient id="paint0_linear_505_50" x1="0" y1="13" x2="120" y2="13" gradientUnits="userSpaceOnUse">
<stop stop-color="white"/>
<stop offset="1" stop-color="#FFC000"/>
</linearGradient>
</defs>
</svg>
