<svg width="825" height="439" viewBox="0 0 825 439" fill="none" xmlns="http://www.w3.org/2000/svg">
<g clip-path="url(#clip0_152_74)">
<path d="M819.47 437.184H360.203C358.788 437.182 357.431 436.619 356.43 435.619C355.43 434.618 354.867 433.261 354.865 431.846V5.338C354.867 3.92284 355.43 2.56617 356.43 1.56551C357.431 0.564838 358.788 0.00185213 360.203 0H819.47C820.885 0.00185213 822.242 0.564838 823.242 1.56551C824.243 2.56617 824.806 3.92284 824.808 5.338V431.845C824.806 433.26 824.243 434.617 823.243 435.618C822.242 436.619 820.885 437.182 819.47 437.184ZM360.203 2.131C359.355 2.13285 358.542 2.47058 357.942 3.0703C357.342 3.67001 357.005 4.48287 357.003 5.33099V431.845C357.005 432.693 357.342 433.506 357.942 434.106C358.542 434.705 359.355 435.043 360.203 435.045H819.47C820.318 435.043 821.131 434.706 821.731 434.106C822.33 433.506 822.668 432.693 822.67 431.845V5.338C822.668 4.48987 822.33 3.67702 821.73 3.0773C821.131 2.47759 820.318 2.13985 819.47 2.138L360.203 2.131Z" fill="#404143"/>
<path d="M577.215 110.829C576.254 110.829 575.332 111.211 574.652 111.891C573.973 112.571 573.591 113.492 573.591 114.453C573.591 115.415 573.973 116.336 574.652 117.016C575.332 117.696 576.254 118.077 577.215 118.077H776.071C777.032 118.077 777.954 117.696 778.633 117.016C779.313 116.336 779.695 115.415 779.695 114.453C779.695 113.492 779.313 112.571 778.633 111.891C777.954 111.211 777.032 110.829 776.071 110.829H577.215Z" fill="#404143"/>
<path d="M577.215 132.575C576.254 132.575 575.332 132.957 574.652 133.637C573.973 134.317 573.591 135.238 573.591 136.199C573.591 137.161 573.973 138.082 574.652 138.762C575.332 139.442 576.254 139.823 577.215 139.823H678.735C679.696 139.823 680.618 139.442 681.297 138.762C681.977 138.082 682.359 137.161 682.359 136.199C682.359 135.238 681.977 134.317 681.297 133.637C680.618 132.957 679.696 132.575 678.735 132.575H577.215Z" fill="#404143"/>
<path d="M403.408 237.829C402.447 237.829 401.525 238.211 400.846 238.891C400.166 239.571 399.784 240.492 399.784 241.453C399.784 242.415 400.166 243.336 400.846 244.016C401.525 244.696 402.447 245.077 403.408 245.077H776.264C777.225 245.077 778.147 244.696 778.827 244.016C779.506 243.336 779.888 242.415 779.888 241.453C779.888 240.492 779.506 239.571 778.827 238.891C778.147 238.211 777.225 237.829 776.264 237.829H403.408Z" fill="#404143"/>
<path d="M403.408 259.575C402.447 259.575 401.525 259.957 400.846 260.637C400.166 261.317 399.784 262.238 399.784 263.199C399.784 264.161 400.166 265.082 400.846 265.762C401.525 266.442 402.447 266.823 403.408 266.823H678.928C679.889 266.823 680.811 266.442 681.491 265.762C682.17 265.082 682.552 264.161 682.552 263.199C682.552 262.238 682.17 261.317 681.491 260.637C680.811 259.957 679.889 259.575 678.928 259.575H403.408Z" fill="#404143"/>
<path d="M403.408 280.829C402.447 280.829 401.525 281.211 400.846 281.891C400.166 282.571 399.784 283.492 399.784 284.453C399.784 285.415 400.166 286.336 400.846 287.016C401.525 287.696 402.447 288.077 403.408 288.077H776.264C777.225 288.077 778.147 287.696 778.827 287.016C779.506 286.336 779.888 285.415 779.888 284.453C779.888 283.492 779.506 282.571 778.827 281.891C778.147 281.211 777.225 280.829 776.264 280.829H403.408Z" fill="#404143"/>
<path d="M403.408 302.575C402.447 302.575 401.525 302.957 400.846 303.637C400.166 304.317 399.784 305.238 399.784 306.199C399.784 307.161 400.166 308.082 400.846 308.762C401.525 309.442 402.447 309.823 403.408 309.823H678.928C679.889 309.823 680.811 309.442 681.491 308.762C682.17 308.082 682.552 307.161 682.552 306.199C682.552 305.238 682.17 304.317 681.491 303.637C680.811 302.957 679.889 302.575 678.928 302.575H403.408Z" fill="#404143"/>
<path d="M526.959 187.183H238.691C237.275 187.182 235.918 186.619 234.918 185.618C233.917 184.618 233.354 183.261 233.353 181.845V55.3385C233.354 53.9232 233.917 52.5664 234.918 51.5657C235.918 50.565 237.275 50.0021 238.691 50.0005H526.959C528.374 50.0021 529.731 50.565 530.731 51.5657C531.732 52.5664 532.295 53.9232 532.297 55.3385V181.845C532.295 183.261 531.732 184.618 530.731 185.618C529.731 186.619 528.374 187.182 526.959 187.183Z" fill="#079992"/>
<path d="M773.958 387.184H664.69C663.275 387.182 661.918 386.619 660.918 385.618C659.917 384.618 659.354 383.261 659.353 381.846V364.339C659.354 362.923 659.917 361.566 660.918 360.566C661.918 359.565 663.275 359.002 664.69 359H773.958C775.374 359.002 776.731 359.565 777.731 360.566C778.732 361.566 779.295 362.923 779.297 364.339V381.846C779.295 383.261 778.732 384.618 777.731 385.618C776.731 386.619 775.374 387.182 773.958 387.184Z" fill="#079992"/>
<path d="M126.436 214.11C121.727 210.594 120.345 204.025 123.349 199.437C123.647 198.988 123.985 198.566 124.358 198.176L124.659 104.717L138.551 107.31L139.161 199.23C142.326 202.902 142.965 208.252 140.402 212.167C137.398 216.755 131.145 217.625 126.436 214.11Z" fill="#FFB8B8"/>
<path d="M198.683 423.301L213.005 423.3L219.819 368.058L198.681 368.059L198.683 423.301Z" fill="#FFB8B8"/>
<path d="M195.03 418.625L223.235 418.624H223.236C228.003 418.624 232.575 420.518 235.946 423.889C239.317 427.259 241.211 431.831 241.211 436.598V437.182L195.031 437.184L195.03 418.625Z" fill="#2F2E41"/>
<path d="M65.5059 423.301L79.8289 423.3L86.6419 368.058L65.5039 368.059L65.5059 423.301Z" fill="#FFB8B8"/>
<path d="M61.853 418.625L90.0585 418.624H90.0596C94.8267 418.624 99.3985 420.518 102.769 423.889C106.14 427.259 108.034 431.831 108.034 436.598V437.182L61.8539 437.184L61.853 418.625Z" fill="#2F2E41"/>
<path d="M197.847 407.871L196.647 400.669C195.414 400.238 194.366 399.397 193.678 398.286C192.389 396.25 192.184 393.383 193.067 389.766L183.404 308.158L132.953 255.814L100.588 333.879L87.7755 395.653V404.579L62.1949 407.863L63.359 399.451C62.3804 399.032 61.565 398.305 61.0362 397.381C59.5665 394.935 59.5866 391.143 61.0958 386.113L61.1612 385.895L61.0777 385.144C61.0191 384.617 61.4037 334.158 76.4037 309.158L91.4265 233.256C91.0363 232.187 89.1103 225.964 92.6425 215.447C96.1286 205.068 105.878 188.349 132.529 167.635L132.621 167.565L132.734 167.541C133.029 167.48 162.423 161.636 177.625 181.515L177.728 181.65V181.819C177.728 183.048 177.702 211.649 175.44 217.995L211.513 284.323C212.216 285.068 218.522 292.35 216.282 311.498L222.109 376.766C222.776 378.039 228.808 390.026 222.16 394.772L223.352 403.013L197.847 407.871Z" fill="#0A3D62"/>
<path d="M137.501 133.6C130.728 133.6 121.727 131.206 116.217 120.171L116.108 119.954L129.682 91.1802C131.441 87.4524 134.589 84.5608 138.452 83.1242C142.315 81.6876 146.588 81.8201 150.355 83.4933C154.122 85.1664 157.084 88.2475 158.608 92.0771C160.133 95.9067 160.098 100.181 158.511 103.985L146.775 132.118L146.571 132.194C143.64 133.135 140.579 133.61 137.501 133.6Z" fill="#079992"/>
<path d="M175.102 190.648L132.31 170.441L138.192 98.6793L148.915 85.5728L150.993 85.128C160.54 83.084 170.46 83.6334 179.723 86.7193L179.927 86.7872L197.541 124.364C197.651 124.551 210.354 146.979 192.794 158.803L175.102 190.648Z" fill="#079992"/>
<path d="M233.931 167.778C233.42 167.991 232.927 168.244 232.456 168.534L187.364 147.908L186.207 135.917L167.883 135.298L167.868 156.724C167.866 158.455 168.427 160.139 169.464 161.525C170.502 162.91 171.961 163.921 173.623 164.407L227.771 180.232C228.327 182.29 229.496 184.129 231.124 185.506C232.751 186.882 234.758 187.731 236.879 187.939C239.001 188.147 241.135 187.704 242.998 186.669C244.862 185.634 246.366 184.057 247.311 182.147C248.256 180.236 248.596 178.083 248.288 175.974C247.98 173.865 247.036 171.9 245.584 170.341C244.131 168.781 242.238 167.7 240.157 167.243C238.075 166.785 235.903 166.972 233.931 167.778Z" fill="#FFB8B8"/>
<path d="M178.775 141.034C173.637 141.034 167.838 139.257 162.272 133.691L162.101 133.52L165.861 101.928C166.349 97.8353 168.418 94.0955 171.628 91.5091C174.837 88.9227 178.932 87.6951 183.035 88.089C187.138 88.4828 190.924 90.4669 193.582 93.6166C196.241 96.7663 197.562 100.832 197.261 104.942L195.041 135.344L194.871 135.48C194.762 135.567 187.786 141.034 178.775 141.034Z" fill="#079992"/>
<path d="M192.525 60.5743C200.126 46.6697 195.016 29.2361 181.111 21.6351C167.207 14.0342 149.773 19.1443 142.172 33.0489C134.571 46.9535 139.682 64.3871 153.586 71.988C167.491 79.589 184.924 74.4788 192.525 60.5743Z" fill="#FFB8B8"/>
<path d="M196.551 31.609C195.127 23.328 188.479 16.4633 180.56 13.6546C172.641 10.8458 163.711 11.7592 155.956 14.9937C154.664 15.5348 153.402 16.142 152.173 16.8127C149.338 11.4099 142.389 8.27636 136.033 8.61456C128.354 9.02313 121.42 13.086 114.751 16.9152C108.082 20.7444 100.926 24.5542 93.2375 24.3759C79.3445 24.0538 69.0085 11.1734 55.6492 7.34553C49.7021 5.64156 43.3741 5.81392 37.5285 7.83912C31.683 9.86431 26.6047 13.6437 22.9864 18.6616C19.3681 23.6795 17.3861 29.6916 17.3108 35.8775C17.2355 42.0635 19.0706 48.122 22.5656 53.2265C28.2658 43.0114 41.6521 39.5612 53.2673 40.9518C64.8821 42.3425 75.7072 47.4337 87.0862 50.1456C98.4655 52.8576 111.644 52.7412 120.458 45.0504C125.458 40.6881 128.394 34.4529 132.746 29.4448C135.691 26.0573 139.882 23.1969 144.165 22.5236C139.946 26.3225 136.726 31.0995 134.786 36.4347C131.352 46.1916 133.188 57.9066 140.312 65.4059C147.949 73.446 159.936 75.5887 171.025 75.4587L171.257 75.2229C167.862 70.1412 165.182 63.0947 168.92 58.2597C172.61 53.4869 179.887 54.1901 185.538 52.0781C193.409 49.1366 197.974 39.89 196.551 31.609Z" fill="#0A3D62"/>
<path d="M274 438.317H1C0.734784 438.317 0.480429 438.211 0.292892 438.024C0.105356 437.836 0 437.582 0 437.317C0 437.051 0.105356 436.797 0.292892 436.609C0.480429 436.422 0.734784 436.317 1 436.317H274C274.265 436.317 274.52 436.422 274.707 436.609C274.895 436.797 275 437.051 275 437.317C275 437.582 274.895 437.836 274.707 438.024C274.52 438.211 274.265 438.317 274 438.317Z" fill="#404143"/>
<path d="M369.89 94.37C368.638 94.374 367.625 95.9997 367.627 98.0012C367.63 99.997 368.641 101.614 369.89 101.618H476.759C478.011 101.614 479.024 99.9883 479.021 97.9868C479.019 95.9909 478.008 94.3739 476.759 94.37H369.89Z" fill="white"/>
<path d="M369.89 115.37C368.638 115.374 367.625 117 367.627 119.001C367.63 120.997 368.641 122.614 369.89 122.618H476.759C478.011 122.614 479.024 120.988 479.021 118.987C479.019 116.991 478.008 115.374 476.759 115.37H369.89Z" fill="white"/>
<path d="M369.89 136.116C368.638 136.12 367.625 137.746 367.627 139.747C367.63 141.743 368.641 143.36 369.89 143.364H415.876C417.128 143.36 418.141 141.734 418.138 139.733C418.136 137.737 417.124 136.12 415.876 136.116H369.89Z" fill="white"/>
<path d="M315.627 147.592C331.644 147.592 344.627 134.608 344.627 118.592C344.627 102.576 331.644 89.592 315.627 89.592C299.611 89.592 286.627 102.576 286.627 118.592C286.627 134.608 299.611 147.592 315.627 147.592Z" fill="white"/>
</g>
<defs>
<clipPath id="clip0_152_74">
<rect width="824.808" height="438.316" fill="white"/>
</clipPath>
</defs>
</svg>
